<svg id="svg" xmlns="http://www.w3.org/2000/svg" xmlns:xlink="http://www.w3.org/1999/xlink" width="400" height="400" viewBox="0, 0, 400,400" version="1.1"><g id="svgg"><path id="path0" d="M190.500 0.270 C 189.565 0.367,188.800 0.616,188.800 0.823 C 188.800 1.030,188.361 1.200,187.824 1.200 C 187.287 1.200,186.736 1.380,186.600 1.600 C 186.464 1.820,186.003 2.000,185.576 2.000 C 185.149 2.000,184.800 2.158,184.800 2.351 C 184.800 2.545,184.260 2.927,183.600 3.200 C 182.940 3.473,182.400 3.855,182.400 4.049 C 182.400 4.242,182.040 4.400,181.600 4.400 C 181.160 4.400,180.800 4.580,180.800 4.800 C 180.800 5.020,180.522 5.200,180.183 5.200 C 179.844 5.200,179.180 5.560,178.708 6.000 C 178.236 6.440,177.344 7.024,176.725 7.297 C 176.106 7.571,175.600 7.931,175.600 8.098 C 175.600 8.264,175.240 8.400,174.800 8.400 C 174.360 8.400,174.000 8.591,174.000 8.824 C 174.000 9.057,173.820 9.136,173.600 9.000 C 173.380 8.864,173.200 8.943,173.200 9.176 C 173.200 9.409,172.840 9.600,172.400 9.600 C 171.960 9.600,171.597 9.735,171.594 9.900 C 171.590 10.065,170.690 10.640,169.594 11.179 C 168.497 11.717,167.600 12.302,167.600 12.479 C 167.600 12.655,167.240 12.800,166.800 12.800 C 166.360 12.800,166.000 12.980,166.000 13.200 C 166.000 13.420,165.722 13.600,165.383 13.600 C 165.044 13.600,164.380 13.960,163.908 14.400 C 163.436 14.840,162.813 15.200,162.525 15.200 C 162.236 15.200,162.000 15.380,162.000 15.600 C 162.000 15.820,161.730 16.000,161.400 16.000 C 161.070 16.000,160.800 16.180,160.800 16.400 C 160.800 16.620,160.522 16.800,160.183 16.800 C 159.844 16.800,159.180 17.160,158.708 17.600 C 158.236 18.040,157.613 18.400,157.325 18.400 C 157.036 18.400,156.800 18.580,156.800 18.800 C 156.800 19.020,156.440 19.200,156.000 19.200 C 155.560 19.200,155.200 19.380,155.200 19.600 C 155.200 19.820,154.880 20.000,154.488 20.000 C 154.097 20.000,153.517 20.360,153.200 20.800 C 152.883 21.240,152.303 21.600,151.912 21.600 C 151.520 21.600,151.200 21.780,151.200 22.000 C 151.200 22.220,150.840 22.400,150.400 22.400 C 149.960 22.400,149.600 22.580,149.600 22.800 C 149.600 23.020,149.364 23.200,149.075 23.200 C 148.787 23.200,148.164 23.560,147.692 24.000 C 147.220 24.440,146.652 24.800,146.431 24.800 C 145.864 24.800,142.228 26.850,142.067 27.261 C 141.993 27.447,141.588 27.600,141.167 27.600 C 140.745 27.600,140.400 27.759,140.400 27.953 C 140.400 28.148,140.085 28.407,139.700 28.529 C 139.004 28.749,136.782 30.013,136.400 30.405 C 136.290 30.518,135.345 31.042,134.300 31.568 C 133.255 32.095,132.400 32.677,132.400 32.863 C 132.400 33.048,132.040 33.200,131.600 33.200 C 131.160 33.200,130.800 33.380,130.800 33.600 C 130.800 33.820,130.440 34.000,130.000 34.000 C 129.560 34.000,129.200 34.180,129.200 34.400 C 129.200 34.620,129.012 34.800,128.783 34.800 C 128.554 34.800,127.980 35.160,127.508 35.600 C 127.036 36.040,126.413 36.400,126.125 36.400 C 125.836 36.400,125.600 36.580,125.600 36.800 C 125.600 37.020,125.240 37.200,124.800 37.200 C 124.360 37.200,124.000 37.380,124.000 37.600 C 124.000 37.820,123.764 38.000,123.475 38.000 C 123.187 38.000,122.564 38.360,122.092 38.800 C 121.620 39.240,120.956 39.600,120.617 39.600 C 120.278 39.600,119.999 39.735,119.997 39.900 C 119.995 40.065,119.590 40.401,119.097 40.648 C 115.702 42.342,112.168 44.204,112.000 44.385 C 111.890 44.504,111.260 44.870,110.600 45.198 C 109.940 45.526,109.130 46.066,108.800 46.397 C 108.470 46.729,107.930 47.059,107.600 47.130 C 107.270 47.202,106.940 47.427,106.867 47.630 C 106.793 47.834,106.388 48.000,105.967 48.000 C 105.545 48.000,105.200 48.180,105.200 48.400 C 105.200 48.620,104.922 48.800,104.583 48.800 C 104.244 48.800,103.580 49.160,103.108 49.600 C 102.636 50.040,102.013 50.400,101.725 50.400 C 101.436 50.400,101.200 50.580,101.200 50.800 C 101.200 51.020,100.840 51.200,100.400 51.200 C 99.960 51.200,99.600 51.380,99.600 51.600 C 99.600 51.820,99.229 52.000,98.776 52.000 C 98.323 52.000,98.064 52.180,98.200 52.400 C 98.336 52.620,98.167 52.800,97.824 52.800 C 97.481 52.800,97.200 52.980,97.200 53.200 C 97.200 53.420,96.840 53.600,96.400 53.600 C 95.960 53.600,95.600 53.780,95.600 54.000 C 95.600 54.220,95.229 54.400,94.776 54.400 C 94.323 54.400,94.064 54.580,94.200 54.800 C 94.336 55.020,94.116 55.200,93.712 55.200 C 93.307 55.200,92.717 55.560,92.400 56.000 C 92.083 56.440,91.503 56.800,91.112 56.800 C 90.720 56.800,90.400 56.980,90.400 57.200 C 90.400 57.420,90.040 57.600,89.600 57.600 C 89.160 57.600,88.795 57.735,88.790 57.900 C 88.784 58.065,87.616 58.740,86.195 59.400 C 84.773 60.060,83.608 60.735,83.605 60.900 C 83.602 61.065,83.330 61.200,83.000 61.200 C 82.670 61.200,82.400 61.380,82.400 61.600 C 82.400 61.820,82.040 62.000,81.600 62.000 C 81.160 62.000,80.800 62.146,80.800 62.325 C 80.800 62.504,80.178 62.895,79.418 63.193 C 78.658 63.491,78.129 63.885,78.242 64.068 C 78.355 64.250,78.077 64.400,77.624 64.400 C 77.171 64.400,76.800 64.580,76.800 64.800 C 76.800 65.020,76.530 65.200,76.200 65.200 C 75.870 65.200,75.600 65.380,75.600 65.600 C 75.600 65.820,75.240 66.000,74.800 66.000 C 74.360 66.000,74.000 66.180,74.000 66.400 C 74.000 66.620,73.680 66.800,73.288 66.800 C 72.897 66.800,72.317 67.160,72.000 67.600 C 71.683 68.040,71.103 68.400,70.712 68.400 C 70.320 68.400,70.000 68.546,70.000 68.725 C 70.000 68.904,69.378 69.295,68.618 69.593 C 67.858 69.891,67.329 70.285,67.442 70.468 C 67.555 70.650,67.277 70.800,66.824 70.800 C 66.371 70.800,66.000 70.980,66.000 71.200 C 66.000 71.420,65.640 71.600,65.200 71.600 C 64.760 71.600,64.400 71.780,64.400 72.000 C 64.400 72.220,64.029 72.400,63.576 72.400 C 63.123 72.400,62.845 72.550,62.958 72.732 C 63.071 72.915,62.542 73.309,61.782 73.607 C 61.022 73.905,60.398 74.251,60.396 74.375 C 60.394 74.499,59.584 74.955,58.596 75.390 C 57.608 75.824,56.800 76.319,56.800 76.490 C 56.800 76.660,56.517 76.800,56.171 76.800 C 55.826 76.800,55.271 77.072,54.939 77.404 C 54.607 77.736,54.170 77.905,53.968 77.780 C 53.765 77.655,53.600 77.731,53.600 77.949 C 53.600 78.168,53.241 78.460,52.802 78.599 C 52.364 78.738,51.773 79.066,51.490 79.326 C 50.767 79.992,48.734 81.207,47.900 81.471 C 47.515 81.593,47.200 81.852,47.200 82.047 C 47.200 82.241,46.840 82.400,46.400 82.400 C 45.960 82.400,45.600 82.580,45.600 82.800 C 45.600 83.020,45.332 83.200,45.005 83.200 C 44.457 83.200,43.522 83.830,42.184 85.100 C 41.894 85.375,41.374 85.600,41.029 85.600 C 40.683 85.600,40.400 85.780,40.400 86.000 C 40.400 86.220,40.040 86.400,39.600 86.400 C 39.160 86.400,38.800 86.580,38.800 86.800 C 38.800 87.020,38.480 87.200,38.088 87.200 C 37.697 87.200,37.117 87.560,36.800 88.000 C 36.483 88.440,35.988 88.800,35.701 88.800 C 35.414 88.800,34.387 89.565,33.419 90.500 C 32.450 91.435,31.111 92.650,30.441 93.200 C 29.772 93.750,29.219 94.343,29.212 94.517 C 29.205 94.691,28.869 95.189,28.464 95.623 C 28.059 96.058,27.474 96.905,27.165 97.507 C 26.855 98.108,26.511 98.690,26.401 98.800 C 25.942 99.258,24.800 101.707,24.800 102.232 C 24.800 102.545,24.620 102.800,24.400 102.800 C 24.180 102.800,24.000 103.340,24.000 104.000 C 24.000 104.660,23.820 105.200,23.600 105.200 C 23.380 105.200,23.200 105.740,23.200 106.400 C 23.200 107.060,23.020 107.600,22.800 107.600 C 22.580 107.600,22.400 108.219,22.400 108.976 C 22.400 109.733,22.220 110.464,22.000 110.600 C 21.735 110.764,21.600 140.996,21.600 200.000 C 21.600 259.004,21.735 289.236,22.000 289.400 C 22.220 289.536,22.400 290.267,22.400 291.024 C 22.400 291.781,22.580 292.400,22.800 292.400 C 23.020 292.400,23.200 292.940,23.200 293.600 C 23.200 294.260,23.380 294.800,23.600 294.800 C 23.820 294.800,24.000 295.340,24.000 296.000 C 24.000 296.660,24.180 297.200,24.400 297.200 C 24.620 297.200,24.800 297.455,24.800 297.768 C 24.800 298.435,26.065 300.940,26.500 301.133 C 26.665 301.207,26.800 301.444,26.800 301.661 C 26.800 302.303,29.259 305.718,30.499 306.800 C 31.130 307.350,32.441 308.565,33.413 309.500 C 34.384 310.435,35.414 311.200,35.701 311.200 C 35.988 311.200,36.483 311.560,36.800 312.000 C 37.117 312.440,37.697 312.800,38.088 312.800 C 38.480 312.800,38.800 312.980,38.800 313.200 C 38.800 313.420,39.160 313.600,39.600 313.600 C 40.040 313.600,40.400 313.780,40.400 314.000 C 40.400 314.220,40.720 314.400,41.112 314.400 C 41.503 314.400,42.083 314.760,42.400 315.200 C 42.717 315.640,43.207 316.000,43.488 316.000 C 43.770 316.000,44.000 316.180,44.000 316.400 C 44.000 316.620,44.360 316.800,44.800 316.800 C 45.240 316.800,45.600 316.980,45.600 317.200 C 45.600 317.420,45.878 317.600,46.217 317.600 C 46.556 317.600,47.220 317.960,47.692 318.400 C 48.164 318.840,48.787 319.200,49.075 319.200 C 49.364 319.200,49.600 319.380,49.600 319.600 C 49.600 319.820,49.960 320.000,50.400 320.000 C 50.840 320.000,51.200 320.158,51.200 320.351 C 51.200 320.545,51.740 320.927,52.400 321.200 C 53.060 321.473,53.600 321.855,53.600 322.049 C 53.600 322.242,53.960 322.400,54.400 322.400 C 54.840 322.400,55.200 322.580,55.200 322.800 C 55.200 323.020,55.560 323.200,56.000 323.200 C 56.440 323.200,56.800 323.353,56.800 323.539 C 56.800 323.726,57.565 324.216,58.500 324.628 C 59.435 325.041,60.290 325.473,60.400 325.590 C 60.510 325.706,61.095 326.056,61.700 326.368 C 62.305 326.680,62.800 327.085,62.800 327.268 C 62.800 327.450,63.160 327.600,63.600 327.600 C 64.040 327.600,64.400 327.780,64.400 328.000 C 64.400 328.220,64.760 328.400,65.200 328.400 C 65.640 328.400,66.000 328.580,66.000 328.800 C 66.000 329.020,66.270 329.200,66.600 329.200 C 66.930 329.200,67.200 329.380,67.200 329.600 C 67.200 329.820,67.470 330.000,67.800 330.000 C 68.130 330.000,68.400 330.180,68.400 330.400 C 68.400 330.620,68.760 330.800,69.200 330.800 C 69.640 330.800,70.000 330.980,70.000 331.200 C 70.000 331.420,70.278 331.600,70.617 331.600 C 70.956 331.600,71.620 331.960,72.092 332.400 C 72.564 332.840,73.187 333.200,73.475 333.200 C 73.764 333.200,74.000 333.380,74.000 333.600 C 74.000 333.820,74.360 334.000,74.800 334.000 C 75.240 334.000,75.600 334.180,75.600 334.400 C 75.600 334.620,75.870 334.800,76.200 334.800 C 76.530 334.800,76.800 334.980,76.800 335.200 C 76.800 335.420,77.070 335.600,77.400 335.600 C 77.730 335.600,78.000 335.746,78.000 335.925 C 78.000 336.104,78.630 336.498,79.400 336.800 C 80.170 337.102,80.800 337.496,80.800 337.675 C 80.800 337.854,81.160 338.000,81.600 338.000 C 82.040 338.000,82.400 338.151,82.400 338.335 C 82.400 338.519,83.795 339.374,85.500 340.235 C 87.205 341.096,88.660 341.935,88.733 342.100 C 88.807 342.265,89.212 342.400,89.633 342.400 C 90.055 342.400,90.400 342.580,90.400 342.800 C 90.400 343.020,90.720 343.200,91.112 343.200 C 91.503 343.200,92.083 343.560,92.400 344.000 C 92.717 344.440,93.207 344.800,93.488 344.800 C 93.770 344.800,94.000 344.980,94.000 345.200 C 94.000 345.420,94.360 345.600,94.800 345.600 C 95.240 345.600,95.600 345.780,95.600 346.000 C 95.600 346.220,95.920 346.400,96.312 346.400 C 96.703 346.400,97.283 346.760,97.600 347.200 C 97.917 347.640,98.497 348.000,98.888 348.000 C 99.280 348.000,99.600 348.180,99.600 348.400 C 99.600 348.620,99.960 348.800,100.400 348.800 C 100.840 348.800,101.200 348.980,101.200 349.200 C 101.200 349.420,101.436 349.600,101.725 349.600 C 102.013 349.600,102.636 349.960,103.108 350.400 C 103.580 350.840,104.244 351.200,104.583 351.200 C 104.922 351.200,105.200 351.380,105.200 351.600 C 105.200 351.820,105.560 352.000,106.000 352.000 C 106.440 352.000,106.800 352.158,106.800 352.351 C 106.800 352.545,107.340 352.927,108.000 353.200 C 108.660 353.473,109.200 353.811,109.200 353.951 C 109.200 354.090,109.785 354.459,110.500 354.770 C 111.215 355.081,111.890 355.454,112.000 355.597 C 112.110 355.741,113.595 356.552,115.300 357.400 C 117.005 358.248,118.400 359.090,118.400 359.271 C 118.400 359.452,118.760 359.600,119.200 359.600 C 119.640 359.600,120.000 359.780,120.000 360.000 C 120.000 360.220,120.360 360.400,120.800 360.400 C 121.240 360.400,121.600 360.580,121.600 360.800 C 121.600 361.020,121.836 361.200,122.125 361.200 C 122.413 361.200,123.036 361.560,123.508 362.000 C 123.980 362.440,124.644 362.800,124.983 362.800 C 125.322 362.800,125.600 362.980,125.600 363.200 C 125.600 363.420,125.870 363.600,126.200 363.600 C 126.530 363.600,126.800 363.780,126.800 364.000 C 126.800 364.220,127.070 364.400,127.400 364.400 C 127.730 364.400,128.000 364.580,128.000 364.800 C 128.000 365.020,128.270 365.200,128.600 365.200 C 128.930 365.200,129.200 365.380,129.200 365.600 C 129.200 365.820,129.560 366.000,130.000 366.000 C 130.440 366.000,130.800 366.180,130.800 366.400 C 130.800 366.620,131.078 366.800,131.417 366.800 C 131.756 366.800,132.420 367.160,132.892 367.600 C 133.364 368.040,133.987 368.400,134.275 368.400 C 134.564 368.400,134.800 368.580,134.800 368.800 C 134.800 369.020,135.145 369.200,135.567 369.200 C 135.988 369.200,136.393 369.335,136.467 369.500 C 136.634 369.876,138.764 371.175,139.700 371.471 C 140.085 371.593,140.400 371.852,140.400 372.047 C 140.400 372.241,140.745 372.400,141.167 372.400 C 141.588 372.400,141.993 372.544,142.067 372.720 C 142.227 373.105,145.945 375.200,146.467 375.200 C 146.669 375.200,147.220 375.560,147.692 376.000 C 148.164 376.440,148.787 376.800,149.075 376.800 C 149.364 376.800,149.600 376.980,149.600 377.200 C 149.600 377.420,149.960 377.600,150.400 377.600 C 150.840 377.600,151.200 377.780,151.200 378.000 C 151.200 378.220,151.520 378.400,151.912 378.400 C 152.303 378.400,152.883 378.760,153.200 379.200 C 153.517 379.640,154.097 380.000,154.488 380.000 C 154.880 380.000,155.200 380.180,155.200 380.400 C 155.200 380.620,155.560 380.800,156.000 380.800 C 156.440 380.800,156.800 380.980,156.800 381.200 C 156.800 381.420,157.036 381.600,157.325 381.600 C 157.613 381.600,158.198 381.915,158.625 382.300 C 159.051 382.685,159.940 383.270,160.600 383.599 C 161.260 383.929,161.890 384.289,162.000 384.399 C 162.394 384.795,164.613 386.054,165.300 386.271 C 165.685 386.393,166.000 386.652,166.000 386.847 C 166.000 387.041,166.360 387.200,166.800 387.200 C 167.240 387.200,167.600 387.345,167.600 387.521 C 167.600 387.698,168.497 388.283,169.594 388.821 C 170.690 389.360,171.590 389.935,171.594 390.100 C 171.597 390.265,171.883 390.400,172.229 390.400 C 172.574 390.400,173.127 390.670,173.457 391.000 C 173.787 391.330,174.404 391.600,174.829 391.600 C 175.253 391.600,175.600 391.780,175.600 392.000 C 175.600 392.220,175.870 392.400,176.200 392.400 C 176.530 392.400,176.800 392.580,176.800 392.800 C 176.800 393.020,177.036 393.200,177.325 393.200 C 177.613 393.200,178.236 393.560,178.708 394.000 C 179.180 394.440,179.844 394.800,180.183 394.800 C 180.522 394.800,180.800 394.980,180.800 395.200 C 180.800 395.420,181.078 395.600,181.417 395.600 C 181.756 395.600,182.420 395.960,182.892 396.400 C 183.364 396.840,183.987 397.200,184.275 397.200 C 184.564 397.200,184.800 397.380,184.800 397.600 C 184.800 397.820,185.149 398.000,185.576 398.000 C 186.003 398.000,186.464 398.180,186.600 398.400 C 186.736 398.620,187.272 398.800,187.790 398.800 C 188.309 398.800,188.808 399.025,188.900 399.300 C 189.028 399.684,191.609 399.800,200.000 399.800 C 208.391 399.800,210.972 399.684,211.100 399.300 C 211.192 399.025,211.691 398.800,212.210 398.800 C 212.728 398.800,213.264 398.620,213.400 398.400 C 213.536 398.180,213.997 398.000,214.424 398.000 C 214.851 398.000,215.200 397.820,215.200 397.600 C 215.200 397.380,215.436 397.200,215.725 397.200 C 216.013 397.200,216.636 396.840,217.108 396.400 C 217.580 395.960,218.244 395.600,218.583 395.600 C 218.922 395.600,219.200 395.420,219.200 395.200 C 219.200 394.980,219.560 394.800,220.000 394.800 C 220.440 394.800,220.800 394.620,220.800 394.400 C 220.800 394.180,221.070 394.000,221.400 394.000 C 221.730 394.000,222.000 393.820,222.000 393.600 C 222.000 393.380,222.270 393.200,222.600 393.200 C 222.930 393.200,223.200 393.020,223.200 392.800 C 223.200 392.580,223.470 392.400,223.800 392.400 C 224.130 392.400,224.400 392.220,224.400 392.000 C 224.400 391.780,224.747 391.600,225.171 391.600 C 225.596 391.600,226.213 391.330,226.543 391.000 C 226.873 390.670,227.426 390.400,227.771 390.400 C 228.117 390.400,228.400 390.220,228.400 390.000 C 228.400 389.780,228.760 389.600,229.200 389.600 C 229.640 389.600,230.000 389.420,230.000 389.200 C 230.000 388.980,230.236 388.800,230.525 388.800 C 230.813 388.800,231.436 388.440,231.908 388.000 C 232.380 387.560,233.044 387.200,233.383 387.200 C 233.722 387.200,234.000 387.020,234.000 386.800 C 234.000 386.580,234.278 386.400,234.617 386.400 C 234.956 386.400,235.620 386.040,236.092 385.600 C 236.564 385.160,237.187 384.800,237.475 384.800 C 237.764 384.800,238.000 384.620,238.000 384.400 C 238.000 384.180,238.360 384.000,238.800 384.000 C 239.240 384.000,239.600 383.820,239.600 383.600 C 239.600 383.380,239.870 383.200,240.200 383.200 C 240.530 383.200,240.800 383.020,240.800 382.800 C 240.800 382.580,241.036 382.400,241.325 382.400 C 241.613 382.400,242.236 382.040,242.708 381.600 C 243.180 381.160,243.844 380.800,244.183 380.800 C 244.522 380.800,244.800 380.620,244.800 380.400 C 244.800 380.180,245.078 380.000,245.417 380.000 C 245.756 380.000,246.420 379.640,246.892 379.200 C 247.364 378.760,247.987 378.400,248.275 378.400 C 248.564 378.400,248.800 378.220,248.800 378.000 C 248.800 377.780,249.160 377.600,249.600 377.600 C 250.040 377.600,250.400 377.420,250.400 377.200 C 250.400 376.980,250.720 376.800,251.112 376.800 C 251.503 376.800,252.083 376.440,252.400 376.000 C 252.717 375.560,253.200 375.200,253.474 375.200 C 254.111 375.200,257.757 373.188,257.933 372.739 C 258.007 372.553,258.412 372.400,258.833 372.400 C 259.255 372.400,259.600 372.220,259.600 372.000 C 259.600 371.780,259.878 371.600,260.217 371.600 C 260.556 371.600,261.220 371.240,261.692 370.800 C 262.164 370.360,262.787 370.000,263.075 370.000 C 263.364 370.000,263.600 369.820,263.600 369.600 C 263.600 369.380,263.960 369.200,264.400 369.200 C 264.840 369.200,265.200 369.020,265.200 368.800 C 265.200 368.580,265.436 368.400,265.725 368.400 C 266.013 368.400,266.636 368.040,267.108 367.600 C 267.580 367.160,268.244 366.800,268.583 366.800 C 268.922 366.800,269.200 366.620,269.200 366.400 C 269.200 366.180,269.560 366.000,270.000 366.000 C 270.440 366.000,270.800 365.820,270.800 365.600 C 270.800 365.380,271.070 365.200,271.400 365.200 C 271.730 365.200,272.000 365.020,272.000 364.800 C 272.000 364.580,272.270 364.400,272.600 364.400 C 272.930 364.400,273.200 364.220,273.200 364.000 C 273.200 363.780,273.470 363.600,273.800 363.600 C 274.130 363.600,274.400 363.420,274.400 363.200 C 274.400 362.980,274.760 362.800,275.200 362.800 C 275.640 362.800,276.000 362.620,276.000 362.400 C 276.000 362.180,276.320 362.000,276.712 362.000 C 277.103 362.000,277.683 361.640,278.000 361.200 C 278.317 360.760,278.897 360.400,279.288 360.400 C 279.680 360.400,280.000 360.220,280.000 360.000 C 280.000 359.780,280.360 359.600,280.800 359.600 C 281.240 359.600,281.600 359.456,281.600 359.280 C 281.600 359.104,283.040 358.258,284.800 357.400 C 286.560 356.542,288.000 355.729,288.000 355.595 C 288.000 355.460,288.630 355.102,289.400 354.800 C 290.170 354.498,290.800 354.104,290.800 353.925 C 290.800 353.746,291.036 353.600,291.325 353.600 C 291.613 353.600,292.236 353.240,292.708 352.800 C 293.180 352.360,293.844 352.000,294.183 352.000 C 294.522 352.000,294.800 351.820,294.800 351.600 C 294.800 351.380,295.160 351.200,295.600 351.200 C 296.040 351.200,296.400 351.020,296.400 350.800 C 296.400 350.580,296.636 350.400,296.925 350.400 C 297.213 350.400,297.836 350.040,298.308 349.600 C 298.780 349.160,299.444 348.800,299.783 348.800 C 300.122 348.800,300.400 348.620,300.400 348.400 C 300.400 348.180,300.678 348.000,301.017 348.000 C 301.356 348.000,302.020 347.640,302.492 347.200 C 302.964 346.760,303.587 346.400,303.875 346.400 C 304.164 346.400,304.400 346.220,304.400 346.000 C 304.400 345.780,304.760 345.600,305.200 345.600 C 305.640 345.600,306.000 345.420,306.000 345.200 C 306.000 344.980,306.230 344.800,306.512 344.800 C 306.793 344.800,307.283 344.440,307.600 344.000 C 307.917 343.560,308.497 343.200,308.888 343.200 C 309.280 343.200,309.600 343.020,309.600 342.800 C 309.600 342.580,309.960 342.400,310.400 342.400 C 310.840 342.400,311.200 342.220,311.200 342.000 C 311.200 341.780,311.549 341.600,311.976 341.600 C 312.403 341.600,312.854 341.436,312.979 341.235 C 313.174 340.919,314.680 340.074,318.297 338.252 C 318.790 338.003,319.195 337.665,319.197 337.500 C 319.199 337.335,319.560 337.200,320.000 337.200 C 320.440 337.200,320.800 337.020,320.800 336.800 C 320.800 336.580,321.070 336.400,321.400 336.400 C 321.730 336.400,322.000 336.220,322.000 336.000 C 322.000 335.780,322.270 335.600,322.600 335.600 C 322.930 335.600,323.200 335.420,323.200 335.200 C 323.200 334.980,323.470 334.800,323.800 334.800 C 324.130 334.800,324.400 334.620,324.400 334.400 C 324.400 334.180,324.760 334.000,325.200 334.000 C 325.640 334.000,326.000 333.820,326.000 333.600 C 326.000 333.380,326.320 333.200,326.712 333.200 C 327.103 333.200,327.683 332.840,328.000 332.400 C 328.317 331.960,328.897 331.600,329.288 331.600 C 329.680 331.600,330.000 331.420,330.000 331.200 C 330.000 330.980,330.360 330.800,330.800 330.800 C 331.240 330.800,331.600 330.620,331.600 330.400 C 331.600 330.180,331.836 330.000,332.125 330.000 C 332.413 330.000,333.036 329.640,333.508 329.200 C 333.980 328.760,334.644 328.400,334.983 328.400 C 335.322 328.400,335.600 328.220,335.600 328.000 C 335.600 327.780,335.960 327.600,336.400 327.600 C 336.840 327.600,337.200 327.420,337.200 327.200 C 337.200 326.980,337.470 326.800,337.800 326.800 C 338.130 326.800,338.400 326.620,338.400 326.400 C 338.400 326.180,338.670 326.000,339.000 326.000 C 339.330 326.000,339.601 325.865,339.601 325.700 C 339.602 325.535,340.412 325.067,341.401 324.660 C 342.391 324.254,343.200 323.759,343.200 323.560 C 343.200 323.362,343.560 323.200,344.000 323.200 C 344.440 323.200,344.800 323.020,344.800 322.800 C 344.800 322.580,345.160 322.400,345.600 322.400 C 346.040 322.400,346.400 322.220,346.400 322.000 C 346.400 321.780,346.636 321.600,346.925 321.600 C 347.213 321.600,347.836 321.240,348.308 320.800 C 348.780 320.360,349.444 320.000,349.783 320.000 C 350.122 320.000,350.400 319.820,350.400 319.600 C 350.400 319.380,350.678 319.200,351.017 319.200 C 351.356 319.200,352.020 318.840,352.492 318.400 C 352.964 317.960,353.587 317.600,353.875 317.600 C 354.164 317.600,354.400 317.420,354.400 317.200 C 354.400 316.980,354.760 316.800,355.200 316.800 C 355.640 316.800,356.000 316.620,356.000 316.400 C 356.000 316.180,356.188 316.000,356.417 316.000 C 356.646 316.000,357.220 315.640,357.692 315.200 C 358.164 314.760,358.787 314.400,359.075 314.400 C 359.364 314.400,359.600 314.220,359.600 314.000 C 359.600 313.780,359.960 313.600,360.400 313.600 C 360.840 313.600,361.200 313.420,361.200 313.200 C 361.200 312.980,361.520 312.800,361.912 312.800 C 362.303 312.800,362.883 312.440,363.200 312.000 C 363.517 311.560,364.012 311.200,364.299 311.200 C 364.995 311.200,371.600 304.990,371.600 304.335 C 371.600 304.132,371.960 303.580,372.400 303.108 C 372.840 302.636,373.200 302.013,373.200 301.725 C 373.200 301.436,373.345 301.200,373.523 301.200 C 373.877 301.200,375.200 298.412,375.200 297.666 C 375.200 297.410,375.380 297.200,375.600 297.200 C 375.820 297.200,376.000 296.660,376.000 296.000 C 376.000 295.340,376.180 294.800,376.400 294.800 C 376.620 294.800,376.800 294.260,376.800 293.600 C 376.800 292.940,376.980 292.400,377.200 292.400 C 377.420 292.400,377.600 291.781,377.600 291.024 C 377.600 290.267,377.780 289.536,378.000 289.400 C 378.265 289.236,378.400 259.004,378.400 200.000 C 378.400 140.996,378.265 110.764,378.000 110.600 C 377.780 110.464,377.600 109.733,377.600 108.976 C 377.600 108.219,377.420 107.600,377.200 107.600 C 376.980 107.600,376.800 107.060,376.800 106.400 C 376.800 105.740,376.620 105.200,376.400 105.200 C 376.180 105.200,376.000 104.660,376.000 104.000 C 376.000 103.340,375.820 102.800,375.600 102.800 C 375.380 102.800,375.200 102.521,375.200 102.180 C 375.200 101.537,374.087 99.151,373.624 98.800 C 373.479 98.690,372.758 97.611,372.023 96.402 C 371.288 95.193,370.162 93.753,369.520 93.202 C 368.879 92.651,367.559 91.435,366.587 90.500 C 365.616 89.565,364.586 88.800,364.299 88.800 C 364.012 88.800,363.517 88.440,363.200 88.000 C 362.883 87.560,362.303 87.200,361.912 87.200 C 361.520 87.200,361.200 87.020,361.200 86.800 C 361.200 86.580,360.840 86.400,360.400 86.400 C 359.960 86.400,359.600 86.220,359.600 86.000 C 359.600 85.780,359.364 85.600,359.075 85.600 C 358.787 85.600,358.164 85.240,357.692 84.800 C 357.220 84.360,356.646 84.000,356.417 84.000 C 356.188 84.000,356.000 83.820,356.000 83.600 C 356.000 83.380,355.640 83.200,355.200 83.200 C 354.760 83.200,354.400 83.020,354.400 82.800 C 354.400 82.580,354.164 82.400,353.875 82.400 C 353.587 82.400,352.964 82.040,352.492 81.600 C 352.020 81.160,351.356 80.800,351.017 80.800 C 350.678 80.800,350.400 80.620,350.400 80.400 C 350.400 80.180,350.122 80.000,349.783 80.000 C 349.444 80.000,348.780 79.640,348.308 79.200 C 347.836 78.760,347.213 78.400,346.925 78.400 C 346.636 78.400,346.400 78.220,346.400 78.000 C 346.400 77.780,346.040 77.600,345.600 77.600 C 345.160 77.600,344.800 77.409,344.800 77.176 C 344.800 76.943,344.643 76.850,344.452 76.968 C 344.260 77.087,343.696 76.830,343.198 76.398 C 342.700 75.966,341.687 75.394,340.946 75.126 C 340.206 74.858,339.600 74.495,339.600 74.320 C 339.600 74.144,339.229 74.000,338.776 74.000 C 338.323 74.000,338.064 73.820,338.200 73.600 C 338.336 73.380,338.167 73.200,337.824 73.200 C 337.481 73.200,337.200 73.020,337.200 72.800 C 337.200 72.580,336.928 72.400,336.595 72.400 C 335.886 72.400,334.570 71.689,333.445 70.700 C 333.007 70.315,332.413 70.000,332.125 70.000 C 331.836 70.000,331.600 69.820,331.600 69.600 C 331.600 69.380,331.240 69.200,330.800 69.200 C 330.360 69.200,330.000 69.020,330.000 68.800 C 330.000 68.580,329.680 68.400,329.288 68.400 C 328.897 68.400,328.317 68.040,328.000 67.600 C 327.683 67.160,327.103 66.800,326.712 66.800 C 326.320 66.800,326.000 66.620,326.000 66.400 C 326.000 66.180,325.640 66.000,325.200 66.000 C 324.760 66.000,324.400 65.820,324.400 65.600 C 324.400 65.380,324.130 65.200,323.800 65.200 C 323.470 65.200,323.200 65.020,323.200 64.800 C 323.200 64.580,322.930 64.400,322.600 64.400 C 322.270 64.400,322.000 64.220,322.000 64.000 C 322.000 63.780,321.730 63.600,321.400 63.600 C 321.070 63.600,320.800 63.420,320.800 63.200 C 320.800 62.980,320.440 62.800,320.000 62.800 C 319.560 62.800,319.199 62.665,319.197 62.500 C 319.195 62.335,318.790 61.997,318.297 61.748 C 314.680 59.926,313.174 59.081,312.979 58.765 C 312.854 58.564,312.403 58.400,311.976 58.400 C 311.549 58.400,311.200 58.220,311.200 58.000 C 311.200 57.780,310.840 57.600,310.400 57.600 C 309.960 57.600,309.600 57.420,309.600 57.200 C 309.600 56.980,309.280 56.800,308.888 56.800 C 308.497 56.800,307.917 56.440,307.600 56.000 C 307.283 55.560,306.793 55.200,306.512 55.200 C 306.230 55.200,306.000 55.020,306.000 54.800 C 306.000 54.580,305.640 54.400,305.200 54.400 C 304.760 54.400,304.400 54.220,304.400 54.000 C 304.400 53.780,304.164 53.600,303.875 53.600 C 303.587 53.600,302.964 53.240,302.492 52.800 C 302.020 52.360,301.356 52.000,301.017 52.000 C 300.678 52.000,300.400 51.820,300.400 51.600 C 300.400 51.380,300.122 51.200,299.783 51.200 C 299.444 51.200,298.780 50.840,298.308 50.400 C 297.836 49.960,297.213 49.600,296.925 49.600 C 296.636 49.600,296.400 49.420,296.400 49.200 C 296.400 48.980,296.040 48.800,295.600 48.800 C 295.160 48.800,294.800 48.620,294.800 48.400 C 294.800 48.180,294.440 48.000,294.000 48.000 C 293.560 48.000,293.200 47.820,293.200 47.600 C 293.200 47.380,292.930 47.200,292.600 47.200 C 292.270 47.200,292.000 47.041,292.000 46.847 C 292.000 46.652,291.685 46.393,291.300 46.271 C 290.573 46.041,288.349 44.765,288.000 44.379 C 287.890 44.257,286.405 43.455,284.700 42.597 C 282.995 41.740,281.600 40.894,281.600 40.719 C 281.600 40.543,281.240 40.400,280.800 40.400 C 280.360 40.400,280.000 40.220,280.000 40.000 C 280.000 39.780,279.680 39.600,279.288 39.600 C 278.897 39.600,278.317 39.240,278.000 38.800 C 277.683 38.360,277.103 38.000,276.712 38.000 C 276.320 38.000,276.000 37.820,276.000 37.600 C 276.000 37.380,275.640 37.200,275.200 37.200 C 274.760 37.200,274.400 37.020,274.400 36.800 C 274.400 36.580,274.164 36.400,273.875 36.400 C 273.587 36.400,272.964 36.040,272.492 35.600 C 272.020 35.160,271.446 34.800,271.217 34.800 C 270.988 34.800,270.800 34.620,270.800 34.400 C 270.800 34.180,270.440 34.000,270.000 34.000 C 269.560 34.000,269.200 33.820,269.200 33.600 C 269.200 33.380,268.840 33.200,268.400 33.200 C 267.960 33.200,267.600 33.020,267.600 32.800 C 267.600 32.580,267.330 32.400,267.000 32.400 C 266.670 32.400,266.400 32.220,266.400 32.000 C 266.400 31.780,266.130 31.600,265.800 31.600 C 265.470 31.600,265.200 31.420,265.200 31.200 C 265.200 30.980,264.840 30.800,264.400 30.800 C 263.960 30.800,263.600 30.620,263.600 30.400 C 263.600 30.180,263.306 30.000,262.947 30.000 C 262.588 30.000,261.958 29.612,261.547 29.139 C 261.136 28.665,260.800 28.405,260.800 28.561 C 260.800 28.838,258.397 27.636,258.000 27.161 C 257.582 26.661,253.946 24.800,253.386 24.800 C 253.064 24.800,252.800 24.620,252.800 24.400 C 252.800 24.180,252.519 24.000,252.176 24.000 C 251.833 24.000,251.664 23.820,251.800 23.600 C 251.936 23.380,251.677 23.200,251.224 23.200 C 250.771 23.200,250.400 23.020,250.400 22.800 C 250.400 22.580,250.055 22.400,249.633 22.400 C 249.212 22.400,248.807 22.265,248.733 22.100 C 248.566 21.724,246.436 20.425,245.500 20.129 C 245.115 20.007,244.800 19.748,244.800 19.553 C 244.800 19.359,244.522 19.200,244.183 19.200 C 243.844 19.200,243.180 18.840,242.708 18.400 C 242.236 17.960,241.613 17.600,241.325 17.600 C 241.036 17.600,240.800 17.420,240.800 17.200 C 240.800 16.980,240.530 16.800,240.200 16.800 C 239.870 16.800,239.600 16.620,239.600 16.400 C 239.600 16.180,239.240 16.000,238.800 16.000 C 238.360 16.000,238.000 15.820,238.000 15.600 C 238.000 15.380,237.764 15.200,237.475 15.200 C 237.187 15.200,236.564 14.840,236.092 14.400 C 235.620 13.960,235.082 13.600,234.896 13.600 C 234.303 13.600,232.406 12.611,232.403 12.300 C 232.401 12.135,232.130 12.000,231.800 12.000 C 231.470 12.000,231.200 11.820,231.200 11.600 C 231.200 11.380,230.930 11.200,230.600 11.200 C 230.270 11.200,230.000 11.009,230.000 10.776 C 230.000 10.543,229.835 10.455,229.632 10.580 C 229.430 10.705,228.993 10.536,228.661 10.204 C 228.329 9.872,227.851 9.600,227.600 9.600 C 227.349 9.600,226.873 9.330,226.543 9.000 C 226.213 8.670,225.596 8.400,225.171 8.400 C 224.747 8.400,224.400 8.220,224.400 8.000 C 224.400 7.780,224.130 7.600,223.800 7.600 C 223.470 7.600,223.200 7.420,223.200 7.200 C 223.200 6.980,222.930 6.800,222.600 6.800 C 222.270 6.800,222.000 6.620,222.000 6.400 C 222.000 6.180,221.730 6.000,221.400 6.000 C 221.070 6.000,220.800 5.820,220.800 5.600 C 220.800 5.380,220.440 5.200,220.000 5.200 C 219.560 5.200,219.200 5.020,219.200 4.800 C 219.200 4.580,218.840 4.400,218.400 4.400 C 217.960 4.400,217.600 4.242,217.600 4.049 C 217.600 3.855,217.060 3.473,216.400 3.200 C 215.740 2.927,215.200 2.545,215.200 2.351 C 215.200 2.158,214.851 2.000,214.424 2.000 C 213.997 2.000,213.536 1.820,213.400 1.600 C 213.264 1.380,212.728 1.200,212.210 1.200 C 211.691 1.200,211.193 0.980,211.104 0.711 C 210.939 0.217,194.432 -0.136,190.500 0.270 M214.800 82.388 C 216.230 82.619,218.570 82.995,220.000 83.224 C 223.303 83.754,225.126 84.159,230.800 85.628 C 257.654 92.581,282.676 110.571,298.711 134.453 C 303.012 140.858,303.006 140.350,298.800 142.773 C 297.150 143.723,295.215 144.838,294.500 145.250 C 293.785 145.663,292.615 146.336,291.900 146.748 C 291.185 147.159,286.640 149.791,281.800 152.598 C 270.699 159.035,269.795 159.556,266.253 161.563 C 265.513 161.983,263.694 163.063,262.212 163.963 C 260.731 164.863,259.457 165.600,259.382 165.600 C 259.307 165.600,257.554 166.590,255.487 167.800 C 250.898 170.487,251.331 170.507,249.408 167.523 C 231.996 140.501,194.326 132.633,167.693 150.455 C 124.851 179.123,135.310 243.831,185.000 257.526 C 209.734 264.342,237.877 252.855,251.029 230.573 C 251.425 229.901,251.691 229.987,254.579 231.724 C 256.296 232.756,257.786 233.600,257.889 233.600 C 257.992 233.600,258.554 233.933,259.138 234.339 C 259.722 234.745,261.190 235.619,262.400 236.280 C 265.653 238.058,267.197 238.947,270.188 240.763 C 271.669 241.663,272.956 242.400,273.048 242.400 C 273.139 242.400,274.516 243.186,276.107 244.146 C 278.496 245.587,284.069 248.828,296.000 255.715 C 296.770 256.160,298.030 256.865,298.800 257.283 C 302.599 259.346,302.598 259.333,299.082 264.600 C 286.201 283.897,266.430 300.506,246.789 308.531 C 245.805 308.933,244.595 309.428,244.100 309.631 C 242.158 310.427,241.347 310.738,240.000 311.200 C 239.230 311.464,238.240 311.823,237.800 311.997 C 225.838 316.723,201.510 319.438,187.490 317.612 C 182.536 316.967,178.804 316.384,176.800 315.941 C 175.810 315.723,174.190 315.365,173.200 315.147 C 171.189 314.703,168.709 314.064,167.200 313.600 C 166.650 313.431,165.390 313.061,164.400 312.777 C 163.410 312.493,162.429 312.112,162.220 311.930 C 162.011 311.749,161.514 311.600,161.115 311.600 C 160.716 311.600,160.077 311.441,159.695 311.247 C 159.014 310.900,157.389 310.204,155.800 309.578 C 152.551 308.297,150.864 307.533,146.990 305.588 C 142.348 303.258,134.416 298.629,133.274 297.583 C 132.903 297.244,131.700 296.356,130.600 295.610 C 126.563 292.872,122.460 289.307,116.577 283.423 C 108.245 275.092,105.780 271.963,97.671 259.427 C 94.118 253.935,88.426 240.884,86.406 233.600 C 86.132 232.610,85.765 231.350,85.592 230.800 C 85.018 228.979,83.822 223.582,83.243 220.200 C 81.980 212.820,81.809 210.419,81.809 200.000 C 81.809 189.581,81.980 187.180,83.243 179.800 C 83.822 176.418,85.018 171.021,85.592 169.200 C 85.765 168.650,86.135 167.390,86.414 166.400 C 96.918 129.119,129.119 96.918,166.400 86.414 C 167.390 86.135,168.650 85.765,169.200 85.592 C 171.090 84.996,176.211 83.859,179.800 83.239 C 182.771 82.725,188.335 82.026,191.000 81.831 C 194.731 81.558,212.186 81.967,214.800 82.388 M305.200 187.000 L 305.400 193.400 311.000 193.497 C 319.216 193.640,318.400 192.923,318.400 200.000 C 318.400 207.077,319.216 206.360,311.000 206.503 L 305.400 206.600 305.200 213.000 L 305.000 219.400 298.710 219.510 L 292.420 219.620 292.310 213.110 L 292.200 206.600 285.800 206.400 L 279.400 206.200 279.400 200.000 L 279.400 193.800 285.800 193.600 L 292.200 193.400 292.310 186.890 L 292.420 180.380 298.710 180.490 L 305.000 180.600 305.200 187.000 M354.406 186.500 C 354.414 194.202,353.802 193.556,361.217 193.689 L 367.400 193.800 367.400 200.000 L 367.400 206.200 361.217 206.311 C 353.801 206.444,354.414 205.796,354.406 213.510 L 354.400 219.620 348.100 219.510 L 341.800 219.400 341.690 212.900 L 341.580 206.400 335.623 206.400 C 327.674 206.400,328.400 207.043,328.400 200.000 C 328.400 192.956,327.673 193.600,335.633 193.600 L 341.600 193.600 341.600 187.267 C 341.600 183.783,341.720 180.813,341.867 180.667 C 342.013 180.520,344.893 180.400,348.267 180.400 L 354.400 180.400 354.406 186.500 " stroke="none" fill-rule="evenodd"></path><path id="path1" d="M191.000 81.831 C 188.335 82.026,182.771 82.725,179.800 83.239 C 176.211 83.859,171.090 84.996,169.200 85.592 C 168.650 85.765,167.390 86.135,166.400 86.414 C 129.119 96.918,96.918 129.119,86.414 166.400 C 86.135 167.390,85.765 168.650,85.592 169.200 C 85.018 171.021,83.822 176.418,83.243 179.800 C 81.980 187.180,81.809 189.581,81.809 200.000 C 81.809 210.419,81.980 212.820,83.243 220.200 C 83.822 223.582,85.018 228.979,85.592 230.800 C 85.765 231.350,86.132 232.610,86.406 233.600 C 88.426 240.884,94.118 253.935,97.671 259.427 C 105.780 271.963,108.245 275.092,116.577 283.423 C 122.460 289.307,126.563 292.872,130.600 295.610 C 131.700 296.356,132.903 297.244,133.274 297.583 C 134.416 298.629,142.348 303.258,146.990 305.588 C 150.864 307.533,152.551 308.297,155.800 309.578 C 157.389 310.204,159.014 310.900,159.695 311.247 C 160.077 311.441,160.716 311.600,161.115 311.600 C 161.514 311.600,162.011 311.749,162.220 311.930 C 162.429 312.112,163.410 312.493,164.400 312.777 C 165.390 313.061,166.650 313.431,167.200 313.600 C 168.709 314.064,171.189 314.703,173.200 315.147 C 174.190 315.365,175.810 315.723,176.800 315.941 C 178.804 316.384,182.536 316.967,187.490 317.612 C 201.510 319.438,225.838 316.723,237.800 311.997 C 238.240 311.823,239.230 311.464,240.000 311.200 C 241.347 310.738,242.158 310.427,244.100 309.631 C 244.595 309.428,245.805 308.933,246.789 308.531 C 266.430 300.506,286.201 283.897,299.082 264.600 C 302.598 259.333,302.599 259.346,298.800 257.283 C 298.030 256.865,296.770 256.160,296.000 255.715 C 284.069 248.828,278.496 245.587,276.107 244.146 C 274.516 243.186,273.139 242.400,273.048 242.400 C 272.956 242.400,271.669 241.663,270.188 240.763 C 267.197 238.947,265.653 238.058,262.400 236.280 C 261.190 235.619,259.722 234.745,259.138 234.339 C 258.554 233.933,257.992 233.600,257.889 233.600 C 257.786 233.600,256.296 232.756,254.579 231.724 C 251.691 229.987,251.425 229.901,251.029 230.573 C 237.877 252.855,209.734 264.342,185.000 257.526 C 135.310 243.831,124.851 179.123,167.693 150.455 C 194.326 132.633,231.996 140.501,249.408 167.523 C 251.331 170.507,250.898 170.487,255.487 167.800 C 257.554 166.590,259.307 165.600,259.382 165.600 C 259.457 165.600,260.731 164.863,262.212 163.963 C 263.694 163.063,265.513 161.983,266.253 161.563 C 269.795 159.556,270.699 159.035,281.800 152.598 C 286.640 149.791,291.185 147.159,291.900 146.748 C 292.615 146.336,293.785 145.663,294.500 145.250 C 295.215 144.838,297.150 143.723,298.800 142.773 C 303.006 140.350,303.012 140.858,298.711 134.453 C 282.676 110.571,257.654 92.581,230.800 85.628 C 225.126 84.159,223.303 83.754,220.000 83.224 C 218.570 82.995,216.230 82.619,214.800 82.388 C 212.186 81.967,194.731 81.558,191.000 81.831 M292.310 186.890 L 292.200 193.400 285.800 193.600 L 279.400 193.800 279.400 200.000 L 279.400 206.200 285.800 206.400 L 292.200 206.600 292.310 213.110 L 292.420 219.620 298.710 219.510 L 305.000 219.400 305.200 213.000 L 305.400 206.600 311.000 206.503 C 319.216 206.360,318.400 207.077,318.400 200.000 C 318.400 192.923,319.216 193.640,311.000 193.497 L 305.400 193.400 305.200 187.000 L 305.000 180.600 298.710 180.490 L 292.420 180.380 292.310 186.890 M341.867 180.667 C 341.720 180.813,341.600 183.783,341.600 187.267 L 341.600 193.600 335.633 193.600 C 327.673 193.600,328.400 192.956,328.400 200.000 C 328.400 207.043,327.674 206.400,335.623 206.400 L 341.580 206.400 341.690 212.900 L 341.800 219.400 348.100 219.510 L 354.400 219.620 354.406 213.510 C 354.414 205.796,353.801 206.444,361.217 206.311 L 367.400 206.200 367.400 200.000 L 367.400 193.800 361.217 193.689 C 353.802 193.556,354.414 194.202,354.406 186.500 L 354.400 180.400 348.267 180.400 C 344.893 180.400,342.013 180.520,341.867 180.667 " stroke="none" fill="#fbfbfb" class="svg-bg" fill-rule="evenodd"></path></g></svg>