<?xml version="1.0" standalone="no"?>
<!DOCTYPE svg PUBLIC "-//W3C//DTD SVG 20010904//EN"
 "http://www.w3.org/TR/2001/REC-SVG-20010904/DTD/svg10.dtd">
<svg version="1.0" xmlns="http://www.w3.org/2000/svg"
 width="450.000000pt" height="512.000000pt" viewBox="0 0 450.000000 512.000000"
 preserveAspectRatio="xMidYMid meet">

<g transform="translate(0.000000,512.000000) scale(0.100000,-0.100000)"
stroke="none">
<path d="M6 5078 c3 -24 97 -1055 209 -2292 112 -1236 206 -2251 209 -2254 3
-3 415 -123 916 -267 l910 -263 910 262 c500 145 913 265 916 269 3 3 98 1018
210 2254 111 1236 205 2267 208 2291 l6 42 -2250 0 -2250 0 6 -42z m3654 -910
c0 -7 -23 -260 -50 -563 -28 -302 -50 -556 -50 -562 0 -10 -64 -13 -288 -13
l-289 0 4 53 c3 28 12 157 21 285 l18 232 -783 0 -783 0 0 -22 c2 -84 159
-1831 166 -1838 5 -4 147 -47 316 -96 l307 -88 601 178 c331 98 604 176 607
173 7 -7 -47 -590 -55 -598 -4 -3 -264 -79 -578 -168 l-571 -163 -577 160
c-318 88 -580 162 -582 165 -2 2 -60 629 -129 1393 -68 764 -127 1410 -130
1437 l-6 47 1416 0 c1125 0 1415 -3 1415 -12z"/>
</g>
</svg>
