<svg id="svg" xmlns="http://www.w3.org/2000/svg" xmlns:xlink="http://www.w3.org/1999/xlink" width="400" height="201.0840108401084" viewBox="0, 0, 400,201.0840108401084" version="1.1"><g id="svgg"><path id="path0" d="M323.395 0.073 C 323.441 0.113,325.153 1.076,327.200 2.214 C 332.648 5.243,335.828 7.177,340.659 10.399 C 345.327 13.512,345.136 13.410,345.500 12.971 C 345.900 12.490,347.226 12.581,347.600 13.117 C 347.996 13.681,348.000 14.252,347.611 14.682 C 347.335 14.986,347.457 15.131,348.968 16.296 C 350.972 17.841,354.641 20.874,356.345 22.394 L 357.588 23.503 358.331 22.997 C 360.389 21.597,362.948 24.096,361.164 25.763 L 360.538 26.347 362.823 28.718 C 364.860 30.830,367.176 33.473,368.630 35.342 L 369.135 35.992 370.138 35.476 C 373.220 33.890,376.630 36.968,374.621 39.522 C 374.384 39.824,373.852 40.222,373.441 40.406 L 372.692 40.741 374.670 43.805 C 376.238 46.234,380.113 53.423,380.513 54.645 C 380.574 54.833,380.808 54.816,381.498 54.576 C 384.912 53.389,388.586 56.434,387.545 59.588 C 387.106 60.917,385.102 62.337,383.660 62.342 C 383.229 62.343,383.226 62.237,383.707 64.000 C 384.188 65.760,385.044 69.877,385.236 71.356 C 385.312 71.944,385.497 72.547,385.647 72.697 C 385.858 72.909,385.863 72.992,385.669 73.070 C 385.532 73.125,385.963 73.164,386.626 73.157 C 387.831 73.142,387.832 73.142,386.928 73.002 C 386.144 72.880,386.251 72.854,387.733 72.811 C 388.930 72.775,389.291 72.712,388.939 72.599 C 388.653 72.507,390.389 72.430,392.978 72.418 C 397.570 72.398,397.964 72.350,397.560 71.864 C 397.394 71.664,397.398 71.594,397.574 71.594 C 397.714 71.594,397.747 71.491,397.654 71.342 C 397.567 71.204,397.468 70.888,397.434 70.639 C 397.288 69.578,394.892 63.017,393.682 60.368 C 383.172 37.343,359.281 16.293,326.457 1.132 C 324.467 0.214,322.953 -0.311,323.395 0.073 M52.288 165.805 C 52.288 166.135,61.883 171.330,67.069 173.808 C 97.891 188.537,133.540 197.426,173.253 200.286 C 214.426 203.250,261.503 198.247,295.160 187.328 C 296.688 186.833,298.041 186.427,298.165 186.426 C 298.290 186.426,298.510 186.283,298.654 186.110 C 298.798 185.936,299.081 185.837,299.282 185.890 C 299.483 185.942,299.648 185.903,299.648 185.803 C 299.648 185.703,299.354 185.620,298.994 185.618 C 298.498 185.615,298.414 185.568,298.643 185.420 C 298.871 185.272,298.774 185.218,298.240 185.195 L 297.536 185.166 298.240 185.018 L 298.944 184.869 298.291 184.843 C 297.931 184.828,297.637 184.726,297.637 184.615 C 297.637 184.505,297.433 184.405,297.185 184.394 C 296.750 184.375,296.752 184.368,297.235 184.213 C 297.697 184.065,297.681 184.050,297.034 184.029 C 296.501 184.012,296.403 183.958,296.631 183.811 C 296.853 183.668,296.694 183.607,296.028 183.583 L 295.123 183.549 296.028 183.409 C 296.882 183.276,296.894 183.266,296.229 183.235 C 295.695 183.209,295.598 183.155,295.827 183.007 C 296.049 182.863,295.889 182.803,295.224 182.778 L 294.319 182.745 295.224 182.604 L 296.129 182.464 295.224 182.430 C 294.558 182.406,294.399 182.345,294.620 182.202 C 294.849 182.054,294.752 182.000,294.218 181.978 L 293.514 181.948 294.218 181.800 L 294.922 181.652 294.218 181.605 C 293.562 181.562,293.548 181.548,294.017 181.398 C 294.507 181.241,294.504 181.236,293.907 181.217 C 293.440 181.201,293.106 181.391,292.499 182.018 C 289.756 184.853,284.757 184.121,283.448 180.694 L 283.115 179.821 282.281 180.086 C 276.034 182.071,269.720 183.828,262.678 185.542 C 260.171 186.153,257.966 186.696,257.777 186.750 C 257.461 186.841,257.464 186.898,257.827 187.492 C 258.604 188.766,258.144 190.851,256.883 191.770 C 254.013 193.862,249.785 192.088,249.775 188.788 C 249.773 188.355,250.463 188.280,244.614 189.349 C 239.359 190.310,230.865 191.575,225.682 192.169 C 223.031 192.473,222.623 192.566,222.733 192.842 C 223.330 194.348,222.936 195.688,221.659 196.499 C 219.341 197.969,216.393 196.591,216.391 194.036 C 216.390 193.249,216.334 193.112,216.038 193.178 C 214.690 193.477,200.946 194.286,192.006 194.592 L 188.034 194.728 188.034 195.459 C 188.034 197.318,185.647 198.358,183.882 197.267 C 183.052 196.754,182.805 196.323,182.805 195.388 L 182.805 194.671 180.945 194.669 C 175.890 194.665,162.716 194.069,155.954 193.538 L 154.340 193.412 154.294 193.976 C 154.104 196.265,150.298 196.060,150.169 193.753 L 150.126 192.984 146.009 192.525 C 138.870 191.730,125.487 189.781,124.032 189.324 C 123.797 189.250,123.680 189.321,123.680 189.538 C 123.680 189.716,123.458 190.085,123.187 190.356 C 122.163 191.379,120.261 190.713,120.261 189.331 C 120.261 188.785,120.169 188.624,119.809 188.540 C 119.560 188.482,117.818 188.114,115.938 187.723 C 108.881 186.254,101.554 184.446,96.761 182.992 C 95.227 182.527,95.123 182.521,95.123 182.899 C 95.123 183.589,93.400 183.869,92.807 183.276 C 92.603 183.072,92.504 182.727,92.554 182.390 L 92.635 181.838 88.198 180.390 C 76.407 176.543,66.879 172.726,56.874 167.841 C 52.593 165.751,52.288 165.616,52.288 165.805 " stroke="none" fill-rule="evenodd"></path><path id="path1" d="M47.763 10.380 C 24.911 11.303,7.000 21.651,1.906 36.875 C -0.576 44.294,0.095 54.667,3.520 61.840 C 8.726 72.739,19.465 78.737,42.232 83.458 C 60.572 87.262,64.946 89.760,65.302 96.631 C 65.577 101.943,61.580 106.042,54.450 107.760 C 39.645 111.328,19.568 106.325,4.890 95.410 L 2.611 93.715 1.306 93.715 L 0.000 93.715 -0.000 107.561 L -0.000 121.407 2.866 122.524 C 28.006 132.328,57.237 132.876,75.515 123.889 C 92.497 115.538,100.078 99.876,95.610 82.372 C 92.215 69.075,81.248 62.122,54.500 56.310 C 43.924 54.012,39.883 52.866,36.903 51.320 C 29.759 47.613,30.201 38.686,37.723 34.760 C 50.521 28.078,72.756 32.130,88.262 43.969 C 89.069 44.585,89.271 44.646,90.528 44.646 L 91.908 44.646 91.857 31.334 L 91.805 18.023 90.598 17.552 C 78.029 12.647,61.238 9.836,47.763 10.380 M102.162 70.300 L 102.162 128.131 126.445 128.048 C 152.330 127.959,151.975 127.971,160.885 126.889 C 195.202 122.719,215.905 93.779,209.937 58.321 C 205.918 34.442,187.019 16.810,162.192 13.777 C 152.634 12.609,148.535 12.469,124.032 12.469 L 102.162 12.469 102.162 70.300 M218.803 70.287 L 218.803 128.105 259.527 128.105 L 300.251 128.105 300.251 117.044 L 300.251 105.983 274.912 105.983 L 249.573 105.983 249.573 59.226 L 249.573 12.469 234.188 12.469 L 218.803 12.469 218.803 70.287 M345.349 13.061 C 344.735 13.573,344.769 14.350,345.427 14.867 C 346.807 15.953,348.584 14.521,347.600 13.117 C 347.202 12.548,346.000 12.518,345.349 13.061 M358.233 23.050 C 357.288 23.670,357.069 24.200,357.383 25.101 C 357.898 26.580,359.928 26.917,361.194 25.735 C 363.011 24.037,360.373 21.646,358.233 23.050 M150.830 34.613 C 169.124 36.456,180.114 50.955,179.317 72.197 C 178.748 87.361,172.714 97.830,161.483 103.140 C 156.078 105.694,153.953 105.997,139.417 106.282 L 132.931 106.409 132.931 70.268 L 132.931 34.126 140.825 34.263 C 145.166 34.338,149.668 34.496,150.830 34.613 M370.104 35.489 C 367.826 36.645,367.892 39.191,370.230 40.372 C 371.740 41.135,373.642 40.767,374.621 39.522 C 376.643 36.951,373.229 33.902,370.104 35.489 M381.297 54.620 C 376.498 56.334,377.828 62.341,383.007 62.341 C 386.760 62.341,388.941 59.011,386.999 56.248 C 385.865 54.635,383.303 53.903,381.297 54.620 M397.486 71.996 C 397.562 72.388,397.450 72.399,393.000 72.418 C 390.400 72.430,388.653 72.508,388.939 72.599 C 389.291 72.712,388.930 72.775,387.733 72.811 C 386.251 72.854,386.144 72.880,386.928 73.002 L 387.833 73.142 386.649 73.172 L 385.466 73.203 385.597 74.158 C 385.669 74.683,385.785 76.434,385.855 78.049 L 385.983 80.985 385.132 81.121 C 378.823 82.130,378.423 90.023,384.581 91.989 C 385.003 92.124,385.013 92.043,384.093 95.928 C 383.264 99.426,381.513 104.526,379.924 108.073 L 378.582 111.068 376.053 111.090 L 373.524 111.111 371.792 111.969 C 367.168 114.261,366.174 119.449,369.661 123.087 L 370.611 124.078 369.246 125.840 C 365.970 130.067,359.682 136.852,356.297 139.814 L 355.128 140.836 354.455 140.516 C 349.046 137.936,342.125 143.609,345.402 147.937 C 345.559 148.145,345.691 148.380,345.695 148.459 C 345.719 148.994,334.943 156.217,328.511 159.978 L 325.499 161.739 324.589 161.230 C 320.322 158.840,315.072 161.609,315.376 166.090 L 315.435 166.964 311.815 168.645 C 306.291 171.209,298.294 174.550,294.291 175.965 L 292.654 176.544 292.210 176.071 C 290.318 174.058,286.127 174.287,284.169 176.511 C 280.027 181.217,288.105 186.558,292.499 182.018 C 293.106 181.391,293.440 181.201,293.907 181.217 C 294.504 181.236,294.507 181.241,294.017 181.398 C 293.548 181.548,293.562 181.562,294.218 181.605 L 294.922 181.652 294.218 181.800 L 293.514 181.948 294.218 181.978 C 294.752 182.000,294.849 182.054,294.620 182.202 C 294.399 182.345,294.558 182.406,295.224 182.430 L 296.129 182.464 295.224 182.604 L 294.319 182.745 295.224 182.778 C 295.889 182.803,296.049 182.863,295.827 183.007 C 295.598 183.155,295.695 183.209,296.229 183.235 C 296.894 183.266,296.882 183.276,296.028 183.409 L 295.123 183.549 296.028 183.583 C 296.694 183.607,296.853 183.668,296.631 183.811 C 296.403 183.958,296.501 184.012,297.034 184.029 C 297.681 184.050,297.697 184.065,297.235 184.213 C 296.752 184.368,296.750 184.375,297.185 184.394 C 297.433 184.405,297.637 184.505,297.637 184.615 C 297.637 184.726,297.931 184.828,298.291 184.843 L 298.944 184.869 298.240 185.018 L 297.536 185.166 298.240 185.195 C 298.774 185.218,298.871 185.272,298.643 185.420 C 298.148 185.739,300.176 185.757,300.955 185.440 C 301.176 185.350,302.670 184.845,304.274 184.318 C 327.482 176.691,352.516 162.952,367.818 149.444 C 389.876 129.971,400.259 109.563,399.741 86.699 C 399.613 81.060,398.587 73.203,397.979 73.203 C 397.894 73.203,397.870 73.032,397.925 72.823 C 397.979 72.614,397.930 72.385,397.814 72.314 C 397.699 72.243,397.655 72.051,397.718 71.889 C 397.780 71.727,397.736 71.594,397.620 71.594 C 397.504 71.594,397.444 71.775,397.486 71.996 M113.022 136.752 L 113.022 137.959 114.731 137.959 L 116.440 137.959 116.440 136.752 L 116.440 135.546 114.731 135.546 L 113.022 135.546 113.022 136.752 M142.584 141.880 L 142.584 148.215 144.193 148.215 L 145.802 148.215 145.802 141.880 L 145.802 135.546 144.193 135.546 L 142.584 135.546 142.584 141.880 M172.147 136.752 L 172.147 137.959 173.756 137.959 L 175.365 137.959 175.365 136.752 L 175.365 135.546 173.756 135.546 L 172.147 135.546 172.147 136.752 M236.702 137.447 L 236.702 139.349 235.847 139.040 C 234.061 138.395,232.100 139.083,231.064 140.717 C 230.565 141.503,230.487 141.556,230.370 141.187 C 229.341 137.943,223.296 137.987,221.563 141.252 C 219.204 145.697,223.778 149.747,229.334 148.131 L 230.468 147.802 230.468 146.759 L 230.468 145.717 230.920 146.612 C 231.843 148.439,234.368 149.046,236.053 147.846 C 236.694 147.389,236.702 147.388,236.702 147.799 C 236.702 148.183,236.819 148.215,238.210 148.215 L 239.718 148.215 239.718 141.880 L 239.718 135.546 238.210 135.546 L 236.702 135.546 236.702 137.447 M240.724 136.752 L 240.724 137.959 242.333 137.959 L 243.942 137.959 243.942 136.752 L 243.942 135.546 242.333 135.546 L 240.724 135.546 240.724 136.752 M106.285 136.136 C 103.400 136.842,102.098 139.234,103.298 141.621 C 103.688 142.398,105.024 143.109,106.962 143.572 C 109.380 144.149,109.970 144.620,109.346 145.473 C 108.661 146.410,105.961 146.216,104.042 145.091 C 102.813 144.370,102.765 144.408,102.765 146.096 L 102.765 147.596 103.821 147.929 C 108.779 149.492,113.462 147.431,112.936 143.918 C 112.688 142.267,111.549 141.361,108.999 140.788 C 106.291 140.179,105.777 139.755,106.670 138.862 C 107.432 138.101,109.321 138.145,110.932 138.962 C 112.494 139.754,112.445 139.783,112.377 138.110 L 112.318 136.652 111.011 136.313 C 109.661 135.964,107.343 135.877,106.285 136.136 M160.282 142.179 L 160.282 148.255 163.751 148.177 C 169.507 148.048,171.661 146.382,171.629 142.081 C 171.598 137.914,169.478 136.329,163.751 136.188 L 160.282 136.103 160.282 142.179 M258.421 142.182 L 258.421 148.215 262.745 148.215 C 266.457 148.215,267.069 148.172,267.069 147.913 C 267.069 147.662,267.197 147.680,267.820 148.014 C 268.821 148.550,270.446 148.548,271.501 148.010 C 272.170 147.669,272.298 147.653,272.298 147.909 C 272.298 148.158,272.601 148.215,273.906 148.215 L 275.515 148.215 275.515 144.686 C 275.515 139.149,274.349 138.161,268.786 138.989 L 267.270 139.214 267.270 140.396 C 267.270 141.726,267.319 141.756,268.678 141.277 C 270.221 140.733,272.102 141.012,272.255 141.808 C 272.304 142.062,272.057 142.156,271.050 142.264 C 268.076 142.583,266.737 143.385,266.524 144.975 L 266.413 145.802 264.126 145.802 L 261.840 145.802 261.840 140.975 L 261.840 136.149 260.131 136.149 L 258.421 136.149 258.421 142.182 M200.302 137.886 L 200.302 139.221 198.944 139.046 C 195.548 138.608,193.676 139.058,192.362 140.630 L 191.601 141.541 191.161 140.705 C 189.977 138.455,185.530 138.105,183.531 140.104 L 183.033 140.602 182.969 139.833 L 182.906 139.065 182.036 139.104 C 181.557 139.126,180.850 139.330,180.466 139.557 C 179.605 140.064,179.588 140.065,179.588 139.568 C 179.588 139.199,179.454 139.165,177.979 139.165 L 176.370 139.165 176.370 143.690 L 176.370 148.215 177.979 148.215 L 179.588 148.215 179.588 145.210 C 179.588 141.844,179.521 141.985,181.165 141.836 L 182.313 141.732 182.236 143.247 C 182.025 147.430,185.521 149.481,190.485 148.088 L 191.654 147.760 191.654 146.751 L 191.654 145.742 192.111 146.421 C 193.109 147.902,194.702 148.512,197.185 148.365 C 199.718 148.215,199.899 148.091,199.899 146.511 C 199.899 145.043,199.824 144.989,198.774 145.701 C 196.770 147.061,194.670 146.011,194.671 143.650 C 194.673 141.246,196.705 140.275,198.782 141.685 C 199.703 142.310,199.899 142.309,199.899 141.679 C 199.899 141.403,199.990 141.176,200.101 141.176 C 200.224 141.176,200.302 142.151,200.302 143.697 C 200.302 148.162,200.763 148.522,206.184 148.291 L 209.351 148.156 209.351 144.992 L 209.351 141.829 209.936 141.587 C 211.593 140.900,211.959 141.578,211.963 145.349 L 211.966 148.215 213.575 148.215 L 215.184 148.215 215.184 145.005 C 215.184 141.490,215.223 141.378,216.466 141.378 C 217.424 141.378,217.597 141.970,217.597 145.243 L 217.597 148.215 219.206 148.215 L 220.814 148.215 220.810 144.746 C 220.804 140.109,220.410 139.193,218.277 138.853 C 217.408 138.714,215.899 139.221,215.141 139.907 C 214.809 140.208,214.749 140.195,214.314 139.726 C 213.303 138.635,211.560 138.534,210.106 139.483 C 209.378 139.958,209.351 139.961,209.351 139.570 C 209.351 139.183,209.224 139.165,206.435 139.165 L 203.519 139.165 203.519 137.858 L 203.519 136.551 201.911 136.551 L 200.302 136.551 200.302 137.886 M166.504 138.958 C 169.647 140.562,168.522 145.542,164.966 145.768 L 163.700 145.849 163.700 142.205 L 163.700 138.562 164.714 138.562 C 165.325 138.562,166.035 138.719,166.504 138.958 M122.231 138.962 C 121.931 139.052,121.411 139.322,121.074 139.562 L 120.463 139.997 120.463 139.581 C 120.463 139.198,120.345 139.165,118.954 139.165 L 117.446 139.165 117.446 143.690 L 117.446 148.215 118.954 148.215 L 120.463 148.215 120.463 145.022 L 120.463 141.829 121.047 141.587 C 122.705 140.900,123.070 141.578,123.074 145.349 L 123.077 148.215 124.585 148.215 L 126.094 148.215 126.094 145.030 L 126.094 141.844 126.606 141.611 C 128.339 140.821,128.708 141.458,128.708 145.243 L 128.708 148.215 130.333 148.215 L 131.958 148.215 131.891 144.545 C 131.836 141.499,131.765 140.764,131.469 140.223 C 130.640 138.706,128.697 138.411,126.898 139.530 L 125.848 140.182 125.343 139.676 C 124.572 138.905,123.350 138.625,122.231 138.962 M137.481 139.059 C 137.052 139.211,136.605 139.434,136.486 139.553 C 136.180 139.858,135.948 139.821,135.948 139.467 C 135.948 139.226,135.646 139.165,134.439 139.165 L 132.931 139.165 132.931 145.400 L 132.931 151.634 134.439 151.634 L 135.948 151.634 135.948 149.801 C 135.948 147.991,135.954 147.969,136.400 148.110 C 139.244 149.005,141.649 147.628,142.189 144.796 C 142.938 140.865,140.556 137.962,137.481 139.059 M149.723 138.939 C 145.610 140.022,144.808 145.895,148.513 147.802 C 149.706 148.416,153.254 148.546,154.801 148.032 L 155.656 147.749 155.656 146.474 C 155.656 145.030,155.626 145.012,154.330 145.701 C 152.711 146.562,150.213 146.301,149.629 145.210 C 149.101 144.223,149.191 144.193,152.667 144.193 L 155.913 144.193 155.774 142.840 C 155.457 139.742,152.911 138.101,149.723 138.939 M247.260 138.850 C 247.149 138.895,246.629 138.991,246.104 139.061 L 245.148 139.190 245.148 140.384 C 245.148 141.041,245.216 141.578,245.299 141.577 C 245.382 141.575,245.894 141.440,246.437 141.275 C 248.175 140.748,249.979 141.005,250.132 141.802 C 250.181 142.054,249.842 142.158,248.391 142.337 C 245.405 142.705,244.344 143.534,244.344 145.500 C 244.344 147.956,246.864 149.241,249.271 148.014 C 250.215 147.533,250.176 147.537,250.176 147.914 C 250.176 148.157,250.491 148.215,251.801 148.215 L 253.426 148.215 253.359 144.545 C 253.284 140.345,253.134 139.910,251.552 139.277 C 250.772 138.965,247.719 138.661,247.260 138.850 M288.286 138.951 C 284.165 139.954,283.354 145.886,287.075 147.802 C 288.267 148.416,291.815 148.546,293.363 148.032 L 294.218 147.749 294.218 146.474 C 294.218 145.050,294.173 145.019,292.987 145.637 C 290.904 146.723,287.984 146.097,287.984 144.566 C 287.984 144.218,288.202 144.193,291.202 144.193 L 294.419 144.193 294.419 143.325 C 294.419 139.937,291.827 138.089,288.286 138.951 M299.383 139.251 C 298.961 139.404,298.441 139.688,298.227 139.881 C 297.852 140.221,297.838 140.214,297.838 139.699 C 297.838 139.166,297.836 139.165,296.229 139.165 L 294.620 139.165 294.620 143.690 L 294.620 148.215 296.229 148.215 L 297.838 148.215 297.838 145.218 L 297.838 142.221 298.471 142.001 C 298.820 141.879,299.593 141.780,300.190 141.780 L 301.275 141.780 301.216 140.422 C 301.148 138.873,300.887 138.706,299.383 139.251 M113.223 143.690 L 113.223 148.215 114.731 148.215 L 116.239 148.215 116.239 143.690 L 116.239 139.165 114.731 139.165 L 113.223 139.165 113.223 143.690 M172.147 143.690 L 172.147 148.215 173.756 148.215 L 175.365 148.215 175.365 143.690 L 175.365 139.165 173.756 139.165 L 172.147 139.165 172.147 143.690 M240.724 143.690 L 240.724 148.215 242.333 148.215 L 243.942 148.215 243.942 143.690 L 243.942 139.165 242.333 139.165 L 240.724 139.165 240.724 143.690 M275.497 139.618 C 275.592 139.867,276.364 141.834,277.213 143.991 L 278.758 147.911 278.122 149.521 C 277.772 150.407,277.439 151.248,277.381 151.391 C 277.299 151.594,277.659 151.638,279.025 151.592 L 280.773 151.533 282.771 146.405 C 283.869 143.585,284.948 140.802,285.167 140.221 L 285.565 139.165 283.902 139.165 L 282.239 139.165 281.469 141.528 C 280.761 143.698,280.342 144.635,280.342 144.045 C 280.342 143.920,279.970 142.770,279.517 141.491 L 278.691 139.165 277.008 139.165 C 275.345 139.165,275.326 139.171,275.497 139.618 M152.223 141.304 C 152.962 142.244,152.809 142.383,151.031 142.383 C 149.227 142.383,149.014 142.170,149.915 141.268 C 150.607 140.576,151.663 140.592,152.223 141.304 M188.144 141.268 C 189.056 142.180,188.837 142.383,186.947 142.383 C 185.349 142.383,185.262 142.361,185.363 141.976 C 185.660 140.841,187.299 140.423,188.144 141.268 M227.049 141.176 C 227.936 142.064,227.616 142.383,225.842 142.383 C 224.957 142.383,224.233 142.333,224.233 142.273 C 224.233 141.035,226.158 140.286,227.049 141.176 M290.785 141.304 C 291.524 142.244,291.371 142.383,289.593 142.383 C 287.789 142.383,287.576 142.170,288.478 141.268 C 289.170 140.576,290.225 140.592,290.785 141.304 M138.448 141.647 C 139.971 143.171,138.870 146.311,136.864 146.163 L 136.048 146.104 135.992 143.875 C 135.937 141.726,135.952 141.638,136.394 141.425 C 137.160 141.056,137.941 141.140,138.448 141.647 M206.335 143.565 L 206.335 145.953 205.706 146.078 C 203.686 146.482,203.519 146.282,203.519 143.449 L 203.519 141.176 204.927 141.176 L 206.335 141.176 206.335 143.565 M236.658 143.428 C 236.722 145.843,236.608 146.043,235.164 146.043 C 233.933 146.043,233.306 144.874,233.575 143.082 C 233.781 141.705,234.413 141.137,235.648 141.216 L 236.601 141.277 236.658 143.428 M250.176 144.900 C 250.176 146.518,247.757 147.063,247.602 145.479 C 247.529 144.740,247.894 144.384,248.930 144.183 C 250.192 143.937,250.176 143.928,250.176 144.900 M272.298 144.872 C 272.298 146.205,271.079 146.848,270.082 146.041 C 269.312 145.417,269.697 144.572,270.894 144.260 C 272.286 143.896,272.298 143.901,272.298 144.872 M191.453 144.668 C 191.453 146.526,186.099 146.658,185.457 144.815 L 185.240 144.193 188.346 144.193 L 191.453 144.193 191.453 144.668 M230.303 144.646 C 230.356 145.017,230.170 145.197,229.266 145.651 C 227.003 146.788,224.233 146.091,224.233 144.385 C 224.233 143.902,230.234 144.160,230.303 144.646 M92.911 181.599 C 92.079 182.431,92.596 183.610,93.792 183.610 C 95.129 183.610,95.763 182.375,94.810 181.625 C 94.126 181.088,93.432 181.078,92.911 181.599 M252.086 185.802 C 250.286 186.637,249.506 188.102,249.961 189.792 C 251.103 194.033,258.220 193.383,258.220 189.038 C 258.220 186.372,254.775 184.554,252.086 185.802 M298.160 186.056 C 298.255 186.209,299.202 186.134,299.376 185.960 C 299.440 185.896,299.175 185.861,298.785 185.883 C 298.396 185.905,298.115 185.982,298.160 186.056 M120.791 188.250 C 119.639 189.156,120.431 190.850,122.007 190.850 C 122.888 190.850,123.680 190.099,123.680 189.265 C 123.680 188.510,122.872 187.833,121.971 187.833 C 121.614 187.833,121.083 188.021,120.791 188.250 M218.271 191.472 C 215.923 192.152,215.736 195.527,217.983 196.674 C 220.438 197.926,223.359 196.194,222.958 193.723 C 222.648 191.814,220.557 190.809,218.271 191.472 M150.880 192.255 C 150.055 192.758,149.893 194.154,150.571 194.915 C 151.702 196.182,154.082 195.577,154.305 193.966 C 154.543 192.246,152.538 191.244,150.880 192.255 M183.516 193.686 C 181.849 195.150,183.046 197.687,185.403 197.687 C 187.010 197.687,188.034 196.787,188.034 195.375 C 188.034 193.266,185.201 192.207,183.516 193.686 " stroke="none"  fill-rule="evenodd"></path></g></svg>