<svg version="1.0" xmlns="http://www.w3.org/2000/svg"
 width="1024.000000pt" height="1024.000000pt" viewBox="0 0 1024.000000 1024.000000"
 preserveAspectRatio="xMidYMid meet">

<g transform="translate(0.000000,1024.000000) scale(0.100000,-0.100000)"
fill="#000000" stroke="none">
<path d="M790 10221 c-253 -54 -478 -205 -620 -415 -62 -93 -100 -173 -137
-293 l-28 -88 -3 -4268 c-2 -4150 -2 -4271 17 -4360 81 -395 382 -696 776
-778 87 -18 229 -19 4325 -19 4096 0 4238 1 4325 19 127 26 241 73 346 142
210 138 355 341 422 590 l22 84 0 4285 0 4285 -22 81 c-49 187 -134 335 -262
463 -129 128 -273 211 -457 264 l-79 22 -4270 2 c-4087 2 -4274 1 -4355 -16z
m7605 -4751 c273 -18 573 -74 748 -140 l57 -21 0 -465 c0 -255 -2 -464 -5
-464 -2 0 -28 15 -57 34 -258 164 -638 267 -994 267 -277 0 -461 -48 -611
-162 -98 -73 -145 -167 -145 -289 -1 -240 188 -401 757 -645 668 -287 957
-500 1127 -832 94 -182 123 -322 122 -588 -1 -212 -18 -322 -75 -480 -61 -169
-194 -352 -342 -470 -237 -190 -513 -293 -942 -351 -163 -22 -639 -25 -815 -5
-308 35 -573 97 -765 179 l-110 47 -3 498 c-1 273 0 497 4 497 3 0 31 -19 62
-43 268 -204 581 -337 905 -382 146 -21 403 -21 520 0 322 56 499 211 499 435
-1 172 -91 301 -307 442 -117 76 -231 132 -570 278 -392 168 -584 283 -764
455 -207 198 -326 435 -361 715 -29 236 8 506 94 694 163 355 500 607 972 725
292 73 613 96 999 71z m-2455 -500 l0 -410 -640 0 -640 0 0 -1830 0 -1830
-510 0 -510 0 0 1830 0 1830 -640 0 -640 0 0 410 0 410 1790 0 1790 0 0 -410z"/>
</g>
</svg>
